<?xml version="1.0" encoding="UTF-8"?>
<svg id="Layer_1" data-name="Layer 1" xmlns="http://www.w3.org/2000/svg" viewBox="0 0 1993.02 929.28">
  <defs>
    <style>
      .cls-1 {
        fill: #fff;
      }
    </style>
  </defs>
  <g id="Generative_Object" data-name="Generative Object">
    <g>
      <path class="cls-1" d="M1235.8,240.99l1.65,11.55-6.6,4.13-1.65,614.84c-3.73,0-5.52-1.65-6.6-1.65V254.19c6.18-6.76-6.14-6.5-8.25-.83-6.34,17,5.46,82.13,0,103.99-1.07,4.27-2.65,4.54-6.6,4.13-.11-36.01.08-72.08,0-108.11l-4.95,1.65,1.65,614.84c-3.26,0-6.63,0-9.9,0V290.5c-.06-3.19,2.43-50.86-6.6-37.14v618.14c-2.74,0-5.51,0-8.25,0l-.83-618.97-4.13,618.97c-6.58-.01-13.22.01-19.81,0-.44-27.47.59-55.07,0-82.53-.13-6.02.25-12.15,0-18.16-.38-9.14,2.37-23.36-3.3-29.71l1.65-499.3c27.44-1.33,55.07-1.07,82.53-.83Z"/>
      <path class="cls-1" d="M1311.72,617.32c-.14,36.17-1.6,72.65-1.65,108.94-.04,26.45,1.38,52.91,1.65,79.23.21,21.24-2.94,42.99,0,64.37-4.53,0-11.93,1.65-18.16,1.65l-.83-620.62-4.13,620.62c-3.29,0-6.61,0-9.9,0,2.82-146.24,1.93-292.76,1.65-439.05l1.65-182.39c-1.57-2.5-12.38,1.76-14.86,2.48-.52.15-5.38-5.66-8.25,2.48v616.49c-4.19,0-6.26-1.65-6.6-1.65l-.83-617.32-5.78,617.32c-.34,0-2.41,1.65-6.6,1.65l-1.65-618.97-1.65-11.55c9.47.08,74.03-1.81,75.93,2.48-.35,124.61.47,249.27,0,373.86Z"/>
      <path class="cls-1" d="M1222.59,254.19l-4.95,617.32c-4.12,0-8.38-1.65-9.9-1.65-.38-169.43.51-338.95,0-508.38,3.95.41,5.54.14,6.6-4.13,5.46-21.85-6.34-86.99,0-103.99,2.11-5.67,14.43-5.93,8.25.83Z"/>
      <path class="cls-1" d="M1237.45,252.54l1.65,618.97c-3.29,0-6.61,0-9.9,0l1.65-614.84,6.6-4.13Z"/>
      <path class="cls-1" d="M1194.53,290.5c3.53,185.09,0,371.07,0,556.25v23.11c-.34,0-2.4,1.66-6.6,1.65V253.36c9.03-13.72,6.54,33.94,6.6,37.14Z"/>
      <path class="cls-1" d="M1222.59,254.19v615.67c-.26,0-.22,1.66-4.95,1.65l4.95-617.32Z"/>
      <path class="cls-1" d="M1179.68,871.51c-1.64,0-3.31,0-4.95,0l4.13-618.97.83,618.97Z"/>
      <path class="cls-1" d="M1207.74,361.48c.51,169.43-.38,338.95,0,508.38-1.06,0-2.22,0-3.3,0l-1.65-614.84,4.95-1.65c.08,36.03-.11,72.1,0,108.11Z"/>
      <path class="cls-1" d="M1194.53,846.75c0-185.18,3.53-371.15,0-556.25v556.25Z"/>
      <path class="cls-1" d="M1280.36,432.45c-.11-59.12.08-118.3,0-177.44l-4.95-1.65,1.65,618.14c-4.12,0-8.4-1.65-9.9-1.65V252.54c2.48-.72,13.28-4.97,14.86-2.48l-1.65,182.39Z"/>
      <path class="cls-1" d="M1267.16,252.54v617.32c-.42,0-4.44,1.65-8.25,1.65V255.01c2.88-8.13,7.73-2.32,8.25-2.48Z"/>
      <path class="cls-1" d="M1252.3,869.86c-2.19,0-4.41,0-6.6,0l5.78-617.32.83,617.32Z"/>
      <path class="cls-1" d="M1280.36,432.45c.28,146.3,1.17,292.81-1.65,439.05h-1.65l-1.65-618.14,4.95,1.65c.08,59.14-.11,118.32,0,177.44Z"/>
      <polygon class="cls-1" points="1293.57 871.51 1288.62 871.51 1292.74 250.89 1293.57 871.51"/>
    </g>
    <g>
      <g>
        <path class="cls-1" d="M1151.62,741.11c5.67,6.35,2.92,20.57,3.3,29.71-6.66-2.8-11.15,4.08-14.03,4.95-.4.12-4.55-3.41-8.25-1.65-5.4,2.56-9.51,16.48-11.55,18.16-1.68,1.38-11.32.87-14.03,4.95.17-12.07-.1-24.24,0-36.31,7.55-1.28,1.61-8.68,4.95-15.68,3.93-8.25,16.84-12.22,25.58-10.73.76.13,13.51,6.02,14.03,6.6Z"/>
        <path class="cls-1" d="M1154.92,871.51c-16.48-.03-33.04.03-49.52,0,.28-14.27-.38-28.66,0-42.92,4.85-1.65,15.65,3.77,18.98,3.3,3.73-.53,7.74-6.49,8.25-6.6,5.3-1.14,12.63,2.22,14.86,1.65,10.74-2.76,2.47-29.76,7.43-37.96.59,27.46-.44,55.06,0,82.53Z"/>
        <path class="cls-1" d="M1154.92,770.82c.25,6.01-.13,12.14,0,18.16-4.96,8.21,3.31,35.2-7.43,37.96-2.22.57-9.56-2.79-14.86-1.65-.52.11-4.52,6.07-8.25,6.6-3.33.47-14.13-4.95-18.98-3.3.28-10.5,1.5-20.77,1.65-31.36,2.71-4.08,12.35-3.57,14.03-4.95,2.05-1.68,6.15-15.6,11.55-18.16,3.7-1.75,7.85,1.77,8.25,1.65,2.88-.87,7.37-7.75,14.03-4.95Z"/>
      </g>
      <g>
        <path class="cls-1" d="M1343.08,625.57c5.45,10.55-1.46,19.17-1.65,27.23-.47,19.46,1.03,57.44-3.3,75.1-1.7,6.92-6.38,17.42-15.68,13.2-3.09-1.4-3.24-15.79-12.38-14.86.06-36.29,1.51-72.76,1.65-108.94,7.78-1,27.28.36,31.36,8.25Z"/>
        <path class="cls-1" d="M1338.13,727.91c.31,3.92-1.75,9.1,3.3,8.25-1.21,18.07-3.87,36.43-4.95,54.47l-24.76,14.86c-.27-26.32-1.69-52.78-1.65-79.23,9.14-.94,9.29,13.46,12.38,14.86,9.3,4.21,13.98-6.28,15.68-13.2Z"/>
        <path class="cls-1" d="M1333.18,871.51c-7.1,0-14.86-1.65-21.46-1.65-2.94-21.39.21-43.14,0-64.37l24.76-14.86c-1.62,26.85-1.98,54-3.3,80.88Z"/>
      </g>
    </g>
    <g>
      <path class="cls-1" d="M955.2,770.82c5.84,5.22,2.74,9.28,3.3,18.16-5.9-1.9-16.34,9.77-17.33,9.9-3.81.52-8.1-6.15-11.55-6.6-7.45-.98-10.19,6.74-18.98-1.65,0-2.03-1.65-7.12-1.65-11.55,7.27-13.1,36.38-17.05,46.22-8.25Z"/>
      <path class="cls-1" d="M958.5,798.88c.86,23.57-.63,47.38,0,70.98-16.19-.12-33.03,1.93-49.52,1.65.05-14.28-.06-28.64,0-42.92,17.35.1,21.15-6.12,33.84-14.86,3.23-2.22,11.14-2.86,11.55-3.3,2.7-2.87-2.37-11.75,4.13-11.55Z"/>
      <path class="cls-1" d="M958.5,788.98c.21,3.26-.12,6.63,0,9.9-6.49-.19-1.43,8.69-4.13,11.55-.41.44-8.32,1.08-11.55,3.3-12.69,8.73-16.49,14.95-33.84,14.86.06-12.57,1.65-25.68,1.65-37.96,8.79,8.39,11.53.68,18.98,1.65,3.46.45,7.74,7.12,11.55,6.6.99-.13,11.43-11.81,17.33-9.9Z"/>
    </g>
    <g>
      <g>
        <path class="cls-1" d="M752.18,757.62c0,21.21,1.65,42.97,1.65,64.37-10.45-5.66-20.88,14.61-22.28,14.86s-15.34-11.85-23.93,0c.6-19.73-.12-39.73,0-59.42,9.07,4.11,4.63-7.06,8.25-12.38,8.54-12.53,23.65-15.98,36.31-7.43Z"/>
        <path class="cls-1" d="M753.83,821.99v49.52c-15.92-.13-31.95.3-47.87,0-1.3-11.63,1.3-23.24,1.65-34.66,8.59-11.85,22.6.24,23.93,0s11.84-20.52,22.28-14.86Z"/>
      </g>
      <g>
        <path class="cls-1" d="M554.11,770.82c0,17.33,1.65,35.27,1.65,52.82-14.49-11.39-31.31-14.77-47.87-4.95,0-9.73.49-20.08,0-29.71,11.49,1.8,7.54-17.93,22.28-19.81,11-1.4,15.8,11.92,23.93,1.65Z"/>
        <path class="cls-1" d="M555.76,823.64v47.87c-15.92.28-31.94-.12-47.87,0,0-17.58.01-35.24,0-52.82,16.56-9.82,33.38-6.44,47.87,4.95Z"/>
      </g>
    </g>
    <g>
      <path class="cls-1" d="M1697.96,683.34c-3.04,3.21-3.88,1.03-2.48,6.6,6.66,26.43,16.59,52.24,22.28,79.23,4.93,23.37,8.79,47.21,11.55,70.98-9.96,9.93.97,12.76-23.11,19.81-7.1,2.08-19.79,5.2-26.41,1.65,1.29-24.79-3.28-54.03-3.3-79.23,3.83-8.66,7.74-18.48-6.6-14.86-1.4.36-4.08-.81-4.95.83-1.57,3.55,1.48,9.02,1.65,10.73,1.49,15.23-.44,18.02-1.65,33.01-1.12,13.94.27,29.69-4.95,42.92-2.33-1.81-6.8-3.83-9.9-6.6l4.95-105.64c7.41-24.21,7.5-69.5,42.92-59.42Z"/>
      <path class="cls-1" d="M1737.57,792.28c17.28,9.64,24.43-4.26,40.44,0,9.82,2.61,10.67,15.93,11.55,16.51,1.29.85,16.9-3.95,29.71,3.3,20.61,11.66,12.56,31.44,17.33,40.44.96,1.81,33.56-.34,33.01,18.98-15.32-.59-30.87.19-46.22,0,2.62-10.5-11.95-11.32-13.2-14.03-3.36-7.24,1.47-20.92-15.68-27.23-26.05-9.59-37.34,16.83-39.61,16.51-1.03-.15-6.04-15.63-13.2-14.86-.74.08-11.85,7.73-12.38,8.25-2.77-23.76-6.63-47.6-11.55-70.98,22.66-8.88,10.13,17.71,19.81,23.11Z"/>
      <path class="cls-1" d="M1737.57,792.28c-9.68-5.4,2.85-31.98-19.81-23.11-5.69-26.99-15.63-52.8-22.28-79.23-1.4-5.58-.57-3.4,2.48-6.6,33.61,9.56,32.79,80.88,39.61,108.94Z"/>
      <path class="cls-1" d="M1650.09,848.4c-1.85-1.65-1.54-3.06-3.3-3.3-1.17-7.8-7.04-14.46-8.25-20.63-4.84-24.6,5.74-42.55,11.55-65.2,1.45-5.66,3.25-10.95,4.95-16.51l-4.95,105.64Z"/>
      <path class="cls-1" d="M1676.5,782.38c.03,25.2,4.6,54.44,3.3,79.23-.03.6-2.71,5.98-3.3,11.55-1.52,14.32-7.56,25.08,13.2,21.46.03.11,1.95-.26,1.65,1.65-6.53-.01-13.26.01-19.81,0-.59-8.08.82-16.75,0-24.76-.26-2.54.6-9.74,0-10.73-.33-.55-6.77-2.07-11.55-5.78,5.22-13.23,3.83-28.98,4.95-42.92,9.16-.2,4.35-23.77,6.6-28.89.72-1.63,4.8-.49,4.95-.83Z"/>
      <path class="cls-1" d="M1650.09,848.4c3.1,2.77,7.57,4.8,9.9,6.6,4.78,3.7,11.22,5.22,11.55,5.78.6.99-.26,8.19,0,10.73-8.07,2.24-17.01-1.6-24.76-1.65-.81-7.73,1.11-17.34,0-24.76,1.76.24,1.46,1.65,3.3,3.3Z"/>
      <path class="cls-1" d="M1823.4,871.51c-37.93-.48-75.96.36-113.89,0-.37-2.56-3.22-8.31-3.3-11.55,24.07-7.05,13.15-9.87,23.11-19.81.53-.53,11.64-8.17,12.38-8.25,7.16-.77,12.18,14.71,13.2,14.86,2.28.33,13.56-26.1,39.61-16.51,17.15,6.31,12.32,20,15.68,27.23,1.26,2.71,15.82,3.53,13.2,14.03Z"/>
      <path class="cls-1" d="M1706.21,859.95c.08,3.25,2.93,8.99,3.3,11.55.21,1.48-1.86,1.82-1.65,3.3-6.52-.39-13.31.55-19.81,0-2.05-.17-7.78-3.21-11.55-1.65.59-5.57,3.27-10.95,3.3-11.55,6.62,3.55,19.31.43,26.41-1.65Z"/>
      <path class="cls-1" d="M1676.5,782.38c-.15.33-4.23-.81-4.95.83-2.25,5.12,2.56,28.68-6.6,28.89,1.21-14.99,3.14-17.78,1.65-33.01,5.63.81,2.64-7.22,3.3-11.55,14.34-3.63,10.44,6.19,6.6,14.86Z"/>
      <path class="cls-1" d="M1669.9,767.52c-.67,4.33,2.33,12.36-3.3,11.55-.17-1.71-3.22-7.18-1.65-10.73.87-1.64,3.55-.47,4.95-.83Z"/>
    </g>
    <g>
      <g>
        <path class="cls-1" d="M1268.81,72.63c-.1,10.01-8.63,18.26-14.86,25.58-55.52,65.31-154.71,134.86-225.3,185.69-210.09,151.28-436.47,281.69-674.26,384.59-2.35-3.53-14.24-23.43-12.38-26.41,145.77-55.58,285.55-133.68,417.6-216.23,141.24-88.29,278.43-187.4,405.22-294.63l-22.28-23.93,126.27-34.66Z"/>
        <path class="cls-1" d="M354.39,668.49c237.79-102.89,464.18-233.31,674.26-384.59,70.59-50.83,169.79-120.38,225.3-185.69,6.23-7.33,14.76-15.57,14.86-25.58l4.95-.83-32.19,127.92c-1.95.42-24.75-27.58-29.71-23.11-225.59,174.43-474.87,338.99-736.16,455.56-14.29,6.37-112.44,49-118.02,45.39-.67-.43-2.79-8.31-3.3-9.08Z"/>
      </g>
      <g>
        <g>
          <path class="cls-1" d="M248.75,848.4c1.28-.01,17.31,5.75,24.76,6.6v16.51c-49.8,3.48-104.45-3.92-153.5-1.65,1.41-8.1,18.61-9.72,20.63-11.55.47-.42-.54-5.16,4.95-11.55,1.94-2.25,6.99-.29,7.43-.83,4.98-6.12,1.09-27.32,23.11-30.54,15.1-2.2,29.62,7.37,36.31,20.63,1.78,3.53,1.14,14.74,2.48,15.68,1.25.88,9.32-.87,11.55,0,3.79,1.48,6.27,6.66,8.25,6.6.86-.02,10.33-9.87,14.03-9.9Z"/>
          <path class="cls-1" d="M250.4,787.33c-.08.65.3,2.22,0,4.95-2.02,18.48-5.41,37.66-1.65,56.12-3.7.03-13.17,9.88-14.03,9.9-1.98.06-4.47-5.12-8.25-6.6-2.24-.87-10.3.88-11.55,0-1.33-.94-.69-12.15-2.48-15.68-6.69-13.27-21.22-22.84-36.31-20.63,3.41-11.75,19.58-2.46,20.63-3.3,1.55-1.24.17-9.71,2.48-14.03,1.21-2.27,28.22-14.09,30.54-14.03,7.5.2,14.02,11.08,20.63,3.3Z"/>
          <path class="cls-1" d="M346.13,775.77c7.74,7.55,1.65,41.3,1.65,52.82-6.24,8.78-9.67-1.22-15.68,1.65-4.11,1.97-1.85,8.52-2.48,9.08s-11.58,6.77-14.86,9.08c3.44-22.34-4.14-43.65-6.6-65.2-.93-8.16,3.38-10.17,3.3-10.73,9.09,12.61,22.22-8.84,34.66,3.3Z"/>
          <path class="cls-1" d="M349.43,871.51h-46.22c-.71-2.54-3.78-10.95-4.95-13.2,7.03-2.06,10.97-6,16.51-9.9,3.27-2.31,14.21-8.5,14.86-9.08s-1.63-7.11,2.48-9.08c6.01-2.87,9.44,7.13,15.68-1.65,0,13.92,3.41,28.75,1.65,42.92Z"/>
        </g>
        <g>
          <path class="cls-1" d="M311.47,772.47c.08.56-4.23,2.57-3.3,10.73,2.46,21.55,10.04,42.86,6.6,65.2-5.54,3.9-9.47,7.84-16.51,9.9-.51-.98.26-3.71-2.48-4.95-6.8,3.86-12.85.64-18.98,0l1.65-70.15c-6.66-1.79-1.36,10.36-4.13,12.38-1.58,1.16-20.08-3.34-23.93-3.3.3-2.73-.08-4.3,0-4.95,2.09-17.02,13.05-91.06,30.54-95.73,1.03-.27,7.53-.28,8.25,0,4.88,1.89,20.9,70.89,22.28,80.88Z"/>
          <path class="cls-1" d="M306.52,897.92c-5.74-.02-12.54-1.64-16.51-1.65v-3.3c0-5.49-3.07-11.95-1.65-18.16,4.74.31,10.59.77,14.86-1.65,1.99,8.12,4,16.25,3.3,24.76Z"/>
          <path class="cls-1" d="M290.01,892.97v3.3c-5.42-.02-11.04.02-16.51,0v-3.3h16.51Z"/>
          <path class="cls-1" d="M276.81,853.35c-.18-.02.65,2.1-3.3,1.65-7.45-.85-23.48-6.61-24.76-6.6-3.76-18.46-.37-37.64,1.65-56.12,3.85-.03,22.35,4.46,23.93,3.3,2.76-2.02-2.53-14.17,4.13-12.38l-1.65,70.15Z"/>
          <path class="cls-1" d="M298.27,858.3c1.18,2.25,4.24,10.66,4.95,13.2.14.51-.13,1.13,0,1.65-4.26,2.42-10.11,1.96-14.86,1.65-3.49-.22-10.04-3.19-14.86-1.65v-18.16c3.96.45,3.12-1.67,3.3-1.65,6.13.64,12.18,3.86,18.98,0,2.74,1.25,1.97,3.97,2.48,4.95Z"/>
          <path class="cls-1" d="M288.36,874.81c-1.42,6.2,1.65,12.67,1.65,18.16h-16.51v-19.81c4.82-1.54,11.37,1.43,14.86,1.65Z"/>
        </g>
      </g>
    </g>
    <g>
      <path class="cls-1" d="M899.08,536.44v335.07c-7.06-.2-14.46.6-21.46,0-5.7-102.63,7.62-213.6,0-315.26-.02-.33,4.32-3.37-.83-6.6-17.14.42-31.47-.83-47.04,3.3-.52.14-1.17-.17-1.65,0,.58-9.59-11.67-.03-12.38,0-1.06.05-11.61-9.67-17.33,1.65-.21-1.19-.16-1.84-1.65-1.65l.83-3.3-25.58,2.48v316.91l-18.16-.83v-46.22c0-21.4-1.65-43.16-1.65-64.37,0-73.31,3.43-146.94,1.65-220.35l145.25-.83Z"/>
      <path class="cls-1" d="M908.98,779.07c0,4.43,1.65,9.52,1.65,11.55,0,12.28-1.59,25.39-1.65,37.96-.06,14.28.05,28.64,0,42.92-3.28-.06-6.62.09-9.9,0v-335.07l9.9,9.08v233.56Z"/>
      <path class="cls-1" d="M877.62,556.25c7.62,101.66-5.7,212.64,0,315.26-3.49-.3-11.45,1.49-13.2-2.48-.54-11.21.74-22.67,0-33.84,6.83-33.33-9.92-275.43,2.48-282.25.49-.27,12.08-1.7,10.73,3.3Z"/>
      <path class="cls-1" d="M828.1,552.95c.48-.17,1.13.14,1.65,0l-1.65,318.56c-3.26.21-6.63-.1-9.9,0-2.61-105.96-3.01-213.18.83-318.56,2.58-.49,7.06.71,9.08,0Z"/>
      <path class="cls-1" d="M877.62,556.25c1.35-5-10.24-3.57-10.73-3.3-12.4,6.82,4.35,248.92-2.48,282.25-.29-4.4-1.82-12.12-3.3-16.51,1.16-88.25-.87-176.64,0-264.92l-13.2,1.65c.74,82.78-1,165.66,0,248.41h-3.3c.99-83.31-.74-166.73,0-250.06h-11.55v317.74c-1.6.18-3.33-.1-4.95,0l1.65-318.56c15.57-4.13,29.9-2.88,47.04-3.3,5.15,3.23.8,6.27.83,6.6Z"/>
      <path class="cls-1" d="M796.74,552.95l-9.9.83c-.18,71.25.24,142.53,0,213.75-.12,34.09-1.67,68.24,0,102.34-1.21.01-4.38,1.61-8.25,1.65l.83-318.56-5.78.83,1.65,317.74c-7.12.07-14.33.06-21.46,0v-3.3l18.16.83v-316.91l25.58-2.48-.83,3.3Z"/>
      <path class="cls-1" d="M796.74,552.95c1.49-.18,1.44.46,1.65,1.65,7.35,42.22.04,135.34,0,183.21-10.08,6.45,5.78,33.51-11.55,29.71.24-71.22-.18-142.51,0-213.75l9.9-.83Z"/>
      <path class="cls-1" d="M828.1,552.95c-2.02.71-6.5-.49-9.08,0-3.83,105.38-3.44,212.61-.83,318.56-1.64.05-3.32-.03-4.95,0v-317.74c-.96-1.36-10.59-1.36-11.55,0-4.37,6.16,3.35,132.8,0,151.03-5.64,51.91,4.22,113.75,0,166.71-1.64.03-3.31-.03-4.95,0,2.97-44.33,1.61-89.2,1.65-133.7.04-47.88,7.35-140.99,0-183.21,5.72-11.32,16.27-1.6,17.33-1.65.71-.03,12.96-9.59,12.38,0Z"/>
      <path class="cls-1" d="M861.11,818.69c-.09,7.06,1.5,49.87,0,51.99-1.08,1.53-11.65,1.85-13.2-1.65-1.54-3.47.11-55.89,0-65.2-1-82.76.74-165.63,0-248.41l13.2-1.65c-.87,88.28,1.16,176.67,0,264.92Z"/>
      <path class="cls-1" d="M844.61,803.83c-.26,22.25.19,44.57,0,66.85-1.23,1.74-8.99.53-11.55.83v-317.74h11.55c-.74,83.33.99,166.76,0,250.06Z"/>
      <path class="cls-1" d="M778.59,871.51c-1.09.01-2.21-.01-3.3,0l-1.65-317.74,5.78-.83-.83,318.56Z"/>
      <path class="cls-1" d="M813.25,871.51c-3.28.07-6.62-.07-9.9,0-.87-5.99,6.64-1.71,8.25-4.13,5.03-7.56-3.86-159.72,0-181.56-9.82-.55-9.1,11.57-9.9,18.98,3.35-18.23-4.37-144.87,0-151.03.96-1.36,10.59-1.36,11.55,0v317.74Z"/>
      <path class="cls-1" d="M803.34,871.51c-.55.01-1.1-.01-1.65,0,4.22-52.96-5.64-114.8,0-166.71.81-7.41.08-19.53,9.9-18.98-3.86,21.84,5.03,174.01,0,181.56-1.61,2.42-9.12-1.87-8.25,4.13Z"/>
      <path class="cls-1" d="M798.39,737.81c-.04,44.5,1.32,89.37-1.65,133.7-3.79.06-9.4-1.66-9.9-1.65-1.67-34.1-.12-68.25,0-102.34,17.33,3.8,1.47-23.26,11.55-29.71Z"/>
    </g>
    <g>
      <path class="cls-1" d="M497.99,752.67l-1.65,117.19c-6.7.02-14.27,1.71-21.46,1.65-2.39-12.66,3.47-102.56-.83-105.64-.99-.71-11-.66-12.38,2.48-4.92,11.13,2.5,85.79,1.65,103.16-2.19-.03-4.42.03-6.6,0v-105.64l-73.45-3.3c-.88,1.35-3.7,3.01-4.13,4.13-5.97,15.39,4.51,80.06,0,100.69l-3.3-25.58c.05-11.97,2.28-66.92,0-73.45-1.08-3.1-5.52-3.1-6.6,0-5.77,16.53,3.1,81.86,1.65,103.16-7.1.24-14.35,0-21.46,0,1.76-14.16-1.65-29-1.65-42.92,0-11.52,6.09-45.27-1.65-52.82l4.13-26.41h146.9c1.47.47.6,3.18.83,3.3Z"/>
      <path class="cls-1" d="M507.89,788.98c.49,9.63,0,19.98,0,29.71.01,17.58,0,35.24,0,52.82-4.17.03-10.15-1.66-11.55-1.65l1.65-117.19c14.34,8.09,9.19,22.39,9.9,36.31Z"/>
      <g>
        <path class="cls-1" d="M456.72,765.87c-3.29.3-9.85-1.38-11.55,2.48-5.64,12.78,4.28,84.24,0,103.16-1.09-.02-2.21.02-3.3,0-1.47-12.7,2.95-103.12-2.48-105.64-1.83-.85-9.46-.4-10.73,2.48-4.93,11.19,2.51,85.75,1.65,103.16-1.64-.05-3.32.07-4.95,0-2.4-12.66,3.48-102.58-.83-105.64-.54-.39-9.92-.32-10.73.83-3.03,4.28,1.12,90.58,0,104.81-1.62-.11-3.35.19-4.95,0-1.27-17.45,6.57-92.07,1.65-103.16-1.62-3.66-11.58-3.66-13.2,0-.92,2.07.22,16.38,0,20.63h-3.3c-.42-11.78,5.15-28.34-11.55-22.28v104.81c-2.66.31-5.56-.13-8.25,0,2.95-9.18,1.61-20.09,1.65-29.71l3.3,25.58c4.51-20.62-5.97-85.29,0-100.69.43-1.11,3.25-2.78,4.13-4.13l73.45,3.3Z"/>
        <path class="cls-1" d="M474.88,871.51c-3.83-.03-7.72.05-11.55,0,.85-17.37-6.57-92.03-1.65-103.16,1.38-3.13,11.39-3.19,12.38-2.48,4.29,3.08-1.56,92.98.83,105.64Z"/>
        <path class="cls-1" d="M456.72,765.87v105.64c-3.83-.06-7.72.06-11.55,0,4.28-18.93-5.64-90.38,0-103.16,1.7-3.86,8.27-2.18,11.55-2.48Z"/>
        <path class="cls-1" d="M375.84,841.8c-.04,9.62,1.3,20.53-1.65,29.71-1.09.05-2.21-.04-3.3,0,1.45-21.3-7.42-86.63-1.65-103.16,1.08-3.1,5.52-3.1,6.6,0,2.28,6.53.05,61.48,0,73.45Z"/>
        <path class="cls-1" d="M441.87,871.51c-3.83-.07-7.73.12-11.55,0,.86-17.41-6.58-91.98-1.65-103.16,1.27-2.87,8.9-3.32,10.73-2.48,5.43,2.52,1,92.93,2.48,105.64Z"/>
        <path class="cls-1" d="M408.86,871.51c-4.03-.47-8.63,1.65-11.55-2.48,1.02-26.58-1.38-53.53,0-80.05.22-4.25-.92-18.56,0-20.63,1.62-3.66,11.58-3.66,13.2,0,4.92,11.1-2.92,85.71-1.65,103.16Z"/>
        <path class="cls-1" d="M425.36,871.51c-3.81-.16-7.75.26-11.55,0,1.12-14.24-3.03-100.54,0-104.81.81-1.15,10.18-1.21,10.73-.83,4.31,3.06-1.57,92.98.83,105.64Z"/>
        <path class="cls-1" d="M394,788.98c.97,27.14-.72,54.52,0,81.7-1.23,1.74-8.99.52-11.55.83v-104.81c16.71-6.06,11.13,10.5,11.55,22.28Z"/>
      </g>
    </g>
    <g>
      <path class="cls-1" d="M694.41,663.53c3.18,16.45-4.94,19.24-16.51,28.06-.22-2.71.87-12-.83-13.2-5.96.26-9.85-1.99-12.38,4.13.63,48.12-.85,96.34,0,144.43l-3.3,1.65c.92-49.18-.69-98.51,0-147.73-2.93-5.6-10.98-.75-11.55-.83-3.43-.43-1.52-.43-4.95,0-.57.07-8.62-4.78-11.55.83.32,39.88-.43,79.81,0,119.67h-3.3c.19-15.46,3.49-116.36,0-121.32-1.16-1.65-10.08-1.67-11.55,1.65,1.18,54.67-1.58,109.6,0,164.23h-3.3c2.74-54.45-2.04-109.69,0-164.23-1.27-2.87-8.9-3.32-10.73-2.48-8.01,3.72-3.48,159.5-2.48,176.61h-3.3c3.38-57.42-2.52-118.02,0-175.79-4.18-1.47-9.83-2.16-11.55,2.48-2.93,7.9-.01,94.18,0,110.59.02,26.29-1.37,53.07,1.65,79.23-2.59.37-5.58-.14-8.25,0l-.83-193.12-4.13,193.12c-6.57.22-13.24-.12-19.81,0v-47.87c0-17.55-1.65-35.49-1.65-52.82,0-35.84,1.37-73.07,4.13-108.94l136.17,1.65Z"/>
      <path class="cls-1" d="M697.71,665.18v204.67c-4.82-.14-12.76,2.23-19.81,1.65-3.48-58.38,4.65-122.17,0-179.91,11.57-8.82,19.68-11.61,16.51-28.06,3.31-.92,3.14,1.56,3.3,1.65Z"/>
      <path class="cls-1" d="M707.61,777.42c-.12,19.69.6,39.69,0,59.42-.35,11.42-2.95,23.03-1.65,34.66-3.63-.07-7.83-1.64-8.25-1.65v-204.67c2.39,1.28,9.23,6.71,9.9,9.08,3.78,13.37.12,83.63,0,103.16Z"/>
      <path class="cls-1" d="M677.9,691.59c4.65,57.74-3.48,121.53,0,179.91-2.71-.22-12,.88-13.2-.83-.19-14.57.26-29.19,0-43.74-.85-48.09.63-96.31,0-144.43,2.52-6.12,6.42-3.86,12.38-4.13,1.7,1.2.61,10.5.83,13.2Z"/>
      <path class="cls-1" d="M615.18,845.1c-.58,11.58,3.99,32-13.2,25.58-.22-5.2.3-10.51,0-15.68-1.01-17.12-5.53-172.89,2.48-176.61,1.83-.85,9.46-.4,10.73,2.48-2.04,54.54,2.74,109.79,0,164.23Z"/>
      <path class="cls-1" d="M661.39,828.59c-.26,14,.19,28.07,0,42.09-1.22,1.73-9,.55-11.55.83-2.25-41.04-2.22-82.9-1.65-123.79.31-22.42,3.14-45.13,1.65-67.67.57.07,8.62-4.78,11.55.83-.69,49.21.92,98.54,0,147.73Z"/>
      <path class="cls-1" d="M644.89,680.04c-1.7,22.49,1.59,45.33,1.65,67.67.11,41.08-3.34,82.56-1.65,123.79-2.56-.28-10.33.9-11.55-.83-.19-23.38.25-46.8,0-70.15-.43-39.86.32-79.79,0-119.67,2.93-5.6,10.98-.75,11.55-.83Z"/>
      <path class="cls-1" d="M630.03,800.53c-.29,23.35.22,46.77,0,70.15-16.91,6.78-11.21-13.71-11.55-25.58-1.58-54.63,1.18-109.56,0-164.23,1.47-3.32,10.39-3.3,11.55-1.65,3.49,4.96.19,105.86,0,121.32Z"/>
      <path class="cls-1" d="M598.67,855c-.3,5.17.22,10.48,0,15.68-1.24,1.75-7.53.49-9.9.83-3.02-26.16-1.63-52.93-1.65-79.23,1.91.96,9.11.99,9.9-.83,2.19-4.99,3.15-104.49,0-108.94-1.27-1.8-7.43-.41-9.9-.83,1.72-4.64,7.38-3.95,11.55-2.48-2.52,57.77,3.38,118.37,0,175.79Z"/>
      <path class="cls-1" d="M587.12,792.28c-.01-16.41-2.93-102.69,0-110.59,2.47.42,8.63-.97,9.9.83,3.15,4.45,2.19,103.95,0,108.94-.8,1.81-7.99,1.79-9.9.83Z"/>
      <path class="cls-1" d="M580.52,871.51c-1.63.09-3.32-.06-4.95,0l4.13-193.12.83,193.12Z"/>
      <path class="cls-1" d="M649.84,680.04c1.49,22.55-1.34,45.25-1.65,67.67h-1.65c-.06-22.34-3.35-45.18-1.65-67.67,3.43-.43,1.52-.43,4.95,0Z"/>
      <path class="cls-1" d="M649.84,871.51c-1.53.17-3.42.17-4.95,0-1.68-41.23,1.76-82.72,1.65-123.79h1.65c-.57,40.89-.6,82.76,1.65,123.79Z"/>
    </g>
    <g>
      <path class="cls-1" d="M273.51,896.27c5.46.02,11.09-.02,16.51,0,3.96.01,10.77,1.63,16.51,1.65,454.97,1.4,910.12-2.36,1365.03-1.65,6.55.01,13.28-.01,19.81,0,5.43,0,12.16,1.64,18.16,1.65,65.88.12,132.34-2.35,198.07-1.65,11.02.12,75.65.18,80.05,1.65,7.35,2.46,8.01,15.64-3.3,18.16-12.09,2.69-69.66-3.75-72.63-1.65-1.64,1.16,1.21,11.93-11.55,14.86H114.23c-12.92-2.86-7.35-13.05-9.9-14.86-4.21-2.98-95.85,8.44-103.16-2.48-2.65-3.96-.55-12.45,4.13-14.03,18.86-6.37,62.44,7.4,83.35-3.3,1.44,1.43,4.53,1.36,5.78,3.3,59.63,1.94,119.58-1.87,179.09-1.65Z"/>
      <g>
        <path class="cls-1" d="M1823.4,871.51c15.34.19,30.9-.59,46.22,0,18.44.71,56.21-4.97,37.96,24.76-65.73-.7-132.19,1.77-198.07,1.65,4.54-7.54-.58-15.75-1.65-23.11-.21-1.48,1.86-1.82,1.65-3.3,37.93.36,75.97-.48,113.89,0Z"/>
        <path class="cls-1" d="M273.51,871.51v24.76c-59.51-.22-119.46,3.59-179.09,1.65-1.25-1.94-4.34-1.87-5.78-3.3-19.94-19.78,20.73-24.27,31.36-24.76,49.05-2.27,103.71,5.13,153.5,1.65Z"/>
        <path class="cls-1" d="M397.3,788.98c-1.38,26.52,1.02,53.47,0,80.05,2.92,4.13,7.53,2.01,11.55,2.48,1.6.19,3.33-.11,4.95,0,3.8.26,7.74-.16,11.55,0,1.63.07,3.32-.05,4.95,0,3.83.12,7.72-.07,11.55,0,1.09.02,2.21-.02,3.3,0,3.83.06,7.72-.06,11.55,0,2.19.03,4.42-.03,6.6,0,3.83.05,7.72-.03,11.55,0,7.19.06,14.76-1.63,21.46-1.65,1.41,0,7.38,1.68,11.55,1.65,15.92-.12,31.95.28,47.87,0,6.57-.12,13.24.22,19.81,0,1.63-.06,3.32.09,4.95,0,2.68-.14,5.66.37,8.25,0,2.38-.34,8.67.92,9.9-.83.22-5.2-.3-10.51,0-15.68h3.3c.3,5.17-.22,10.48,0,15.68,17.19,6.42,12.62-14,13.2-25.58h3.3c.34,11.87-5.36,32.36,11.55,25.58.22-23.38-.29-46.8,0-70.15h3.3c.25,23.35-.19,46.77,0,70.15,1.22,1.73,9,.55,11.55.83,1.53.17,3.42.17,4.95,0,2.56-.28,10.33.9,11.55-.83.19-14.02-.26-28.09,0-42.09l3.3-1.65c.26,14.55-.19,29.17,0,43.74,1.21,1.7,10.49.6,13.2.83,7.04.58,14.98-1.79,19.81-1.65.42.01,4.62,1.58,8.25,1.65,15.92.3,31.94-.13,47.87,0,7.12.06,14.33.07,21.46,0,1.09-.01,2.21.01,3.3,0,3.87-.04,7.04-1.64,8.25-1.65.5,0,6.12,1.71,9.9,1.65,1.64-.03,3.31.03,4.95,0,.55-.01,1.1.01,1.65,0,3.28-.07,6.62.07,9.9,0,1.64-.03,3.32.05,4.95,0,3.27-.1,6.65.21,9.9,0,1.62-.1,3.35.18,4.95,0,2.56-.29,10.32.91,11.55-.83.19-22.28-.26-44.6,0-66.85h3.3c.11,9.3-1.54,61.73,0,65.2,1.55,3.5,12.12,3.19,13.2,1.65,1.5-2.12-.09-44.93,0-51.99,1.49,4.39,3.01,12.1,3.3,16.51.74,11.16-.54,22.63,0,33.84,1.75,3.96,9.71,2.18,13.2,2.48,7,.6,14.4-.2,21.46,0,3.28.09,6.62-.06,9.9,0,16.49.28,33.33-1.77,49.52-1.65,7.15.05,14.4-.05,21.46,0,.55,0,1.1,0,1.65,0,.42,0,4.45,1.63,8.25,1.65,3.28.02,6.62-.02,9.9,0,1.64,0,3.31,0,4.95,0,3.83.02,7.72-.01,11.55,0,1.09,0,2.21,0,3.3,0,3.83.01,7.72-.01,11.55,0,1.09,0,2.21,0,3.3,0,3.83.01,7.72-.01,11.55,0,1.09,0,2.21,0,3.3,0,3.84.01,7.72-.01,11.55,0,1.64,0,3.31,0,4.95,0,3.84,0,7.72,0,11.55,0,7.13.02,14.32-.01,21.46,0,2.19,0,4.42,0,6.6,0,16.48.03,33.04-.03,49.52,0,6.58.01,13.22-.01,19.81,0,1.64,0,3.31,0,4.95,0,2.74,0,5.51,0,8.25,0,4.2,0,6.26-1.65,6.6-1.65,3.28,0,6.64,0,9.9,0,1.08,0,2.24,0,3.3,0,1.52,0,5.78,1.65,9.9,1.65,4.74,0,4.69-1.65,4.95-1.65,1.08,0,2.87,1.65,6.6,1.65,3.29,0,6.61,0,9.9,0,4.19,0,6.26-1.65,6.6-1.65,2.2,0,4.41,0,6.6,0,.34,0,2.42,1.65,6.6,1.65,3.82,0,7.83-1.65,8.25-1.65,1.51,0,5.78,1.65,9.9,1.65h1.65c3.29,0,6.61,0,9.9,0h4.95c6.23,0,13.62-1.65,18.16-1.65,6.6,0,14.36,1.65,21.46,1.65,6.73,0,14.64-1.65,19.81-1.65h143.6c16.22,0,33.06,1.65,49.52,1.65h28.06c24.13,0,48.76-1.82,72.63-1.65,7.75.05,16.69,3.89,24.76,1.65.82,8.01-.59,16.68,0,24.76-454.91-.71-910.06,3.05-1365.03,1.65.7-8.5-1.31-16.64-3.3-24.76-.13-.52.14-1.14,0-1.65h46.22c7.11,0,14.36.24,21.46,0,1.09-.04,2.21.05,3.3,0,2.7-.13,5.59.31,8.25,0,2.57-.3,10.32.92,11.55-.83-.72-27.18.97-54.56,0-81.7h3.3Z"/>
        <path class="cls-1" d="M1707.86,874.81c1.07,7.36,6.19,15.56,1.65,23.11-6-.01-12.73-1.64-18.16-1.65.3-1.91-1.62-1.54-1.65-1.65-1.24-5.01.9-13.79-1.65-19.81,6.5.55,13.28-.39,19.81,0Z"/>
      </g>
      <path class="cls-1" d="M1688.06,874.81c2.55,6.02.42,14.8,1.65,19.81-20.77,3.62-14.73-7.14-13.2-21.46,3.77-1.56,9.5,1.48,11.55,1.65Z"/>
    </g>
    <g>
      <g>
        <path class="cls-1" d="M1470.18,196.42c18.4,115.61,13.61,284.42,18.16,406.04,1.87,50.03,3.38,100.16,4.95,150.2l-135.35-1.65c.09-2.18-.1-4.42,0-6.6l131.22,4.95c1.17-.83,1.2-6,.83-7.43-2.03-7.77-118.26-3.79-132.05-2.48.16-3.72,1.52-5.42,1.65-8.25l127.92,4.95,2.48-7.43-130.4-4.13c.05-1.09-.05-2.21,0-3.3,16.26-.53,124.28,5.4,129.57,1.65,1.15-.81,1.21-10.18.83-10.73-3.78-5.31-114.94,2.35-130.4-.83.1-2.18-.1-4.42,0-6.6l130.4,4.13c.99-1.32-.82-9.87-2.48-10.73-11.16-5.75-106.51,4.38-126.27,0,.08-1.63-.08-3.32,0-4.95h126.27c-.06-.82,1.13-7.21.83-7.43-6.42-4.66-110.78,1.84-127.09-.83.1-2.18-.1-4.42,0-6.6l124.62,3.3.83-10.73-125.44,2.48c.18-3.67,1.47-6.23,1.65-9.9l122.97,4.95c1.66-.85,3.47-9.41,2.48-10.73-3.78-5.01-110.53,2.12-125.44-.83.16-3.27-.16-6.63,0-9.9,2.61.88,2.08,7.26,4.13,8.25,5.41,2.64,115.58,3.48,120.49,0,1.09-.77,1.3-8.04.83-9.08-2.63-5.69-111.29-1.95-125.44-.83,4.95-100.64,10.79-201.4,16.51-302.06l94.91-1.65c1.17-.83,1.18-6.96.83-7.43-2.87-3.83-84.42.06-95.73.83.12-2.18-.12-4.43,0-6.6,11.09-3.31,91.83,4.96,94.08.83.48-.87.25-8.32-.83-9.08-3.74-2.65-80.18,1.93-91.61,0,2.29-40.38,3.29-80.85,4.95-121.32l84.18-2.48Z"/>
        <path class="cls-1" d="M1442.12,178.26h-1.65c4.22-17.67-14.37-10-26.41-12.38-.69,3.75-1.55,6.82-1.65,10.73-.52,20.95,14.51,9.16,29.71,9.9,8.85.43,18.11,3.09,27.23,1.65,5.27,3.23.62,6.96.83,8.25l-84.18,2.48c-1.66,40.47-2.66,80.94-4.95,121.32-.21,3.66-1.49,5.43-1.65,8.25-.12,2.18.12,4.43,0,6.6-.15,2.72.15,5.53,0,8.25-5.72,100.66-11.55,201.42-16.51,302.06-.03.55.03,1.1,0,1.65-.16,3.27.16,6.63,0,9.9-.11,2.18.11,4.42,0,6.6-.18,3.67-1.47,6.23-1.65,9.9-.08,1.63.08,3.32,0,4.95-.1,2.18.1,4.42,0,6.6-.13,2.72.13,5.53,0,8.25-.08,1.63.08,3.32,0,4.95-.02.34-1.47,2.85-1.65,6.6-.1,2.18.1,4.42,0,6.6-.15,3.27.15,6.63,0,9.9-.05,1.09.05,2.21,0,3.3-.1,2.18.1,4.42,0,6.6-.13,2.83-1.49,4.54-1.65,8.25-.07,1.63.07,3.32,0,4.95-.1,2.18.09,4.42,0,6.6-.98,23.09-2.56,46.21-3.3,69.32-.09,2.73.08,5.52,0,8.25-.05,1.64.04,3.32,0,4.95-.08,3.01-1.62,5.52-1.65,9.9,0,1.09,0,2.21,0,3.3,0,4.19-.46,9.23,0,13.2.37,3.21-.26,6.67,0,9.9-5.16,0-13.08,1.65-19.81,1.65,1.32-26.88,1.69-54.03,3.3-80.88,1.09-18.04,3.74-36.4,4.95-54.47,11.76-175.71,26.08-351.61,36.31-527.36.32-5.43,1.11-14.25-1.65-18.98,7.07-4.11,32.6.43,34.66-2.48.97-14.71-1.31-30.91,0-45.39,6.92.84,1.34-15.2,3.3-18.16.33-.5,10.96-3.25,11.55-3.3,1.93-.17,11.67,3.47,15.68,1.65,3.58,1.66.83,48.62.83,56.12Z"/>
        <path class="cls-1" d="M1357.94,744.41c.07-1.63-.07-3.32,0-4.95,13.78-1.32,130.02-5.29,132.05,2.48.37,1.43.35,6.6-.83,7.43l-131.22-4.95Z"/>
        <path class="cls-1" d="M1359.59,731.21c.1-2.18-.1-4.42,0-6.6l130.4,4.13-2.48,7.43-127.92-4.95Z"/>
        <path class="cls-1" d="M1359.59,721.3c.15-3.27-.15-6.63,0-9.9,15.46,3.18,126.62-4.49,130.4.83.39.54.32,9.92-.83,10.73-5.29,3.75-113.31-2.18-129.57-1.65Z"/>
        <path class="cls-1" d="M1362.89,663.53c.11-2.18-.11-4.42,0-6.6,14.91,2.94,121.67-4.18,125.44.83.99,1.32-.82,9.87-2.48,10.73l-122.97-4.95Z"/>
        <path class="cls-1" d="M1361.24,678.39c.08-1.63-.08-3.32,0-4.95l125.44-2.48-.83,10.73-124.62-3.3Z"/>
        <path class="cls-1" d="M1362.89,647.03c.03-.55-.03-1.1,0-1.65,14.16-1.13,122.81-4.87,125.44.83.48,1.03.26,8.31-.83,9.08-4.92,3.48-115.08,2.64-120.49,0-2.04-1-1.52-7.37-4.13-8.25Z"/>
        <path class="cls-1" d="M1359.59,704.8c.18-3.75,1.63-6.26,1.65-6.6,19.76,4.38,115.11-5.75,126.27,0,1.66.85,3.47,9.41,2.48,10.73l-130.4-4.13Z"/>
        <path class="cls-1" d="M1361.24,693.24c.13-2.72-.13-5.53,0-8.25,16.32,2.67,120.68-3.83,127.09.83.3.22-.89,6.6-.83,7.43h-126.27Z"/>
        <path class="cls-1" d="M1379.4,343.32c.15-2.72-.15-5.53,0-8.25,11.31-.77,92.86-4.65,95.73-.83.35.47.34,6.6-.83,7.43l-94.91,1.65Z"/>
        <path class="cls-1" d="M1379.4,328.47c.16-2.83,1.44-4.59,1.65-8.25,11.43,1.93,87.87-2.65,91.61,0,1.08.76,1.3,8.2.83,9.08-2.25,4.13-82.99-4.14-94.08-.83Z"/>
        <path class="cls-1" d="M1494.94,859.95h-141.95c-.46-3.98,0-9.02,0-13.2h139.47c-1.62,5.24,2.47,12.46,2.48,13.2Z"/>
        <path class="cls-1" d="M1494.94,859.95c.03,2.27.65,8.86-.83,9.9h-141.12c-.26-3.24.37-6.7,0-9.9h141.95Z"/>
        <g>
          <path class="cls-1" d="M1425.61,120.49c-.6.05-11.22,2.8-11.55,3.3.14-1.56,3.27-5.42,3.3-5.78,3.43-38.93.74-79.08,5.78-118.02l2.48,120.49Z"/>
          <path class="cls-1" d="M1438.82,184.87c3.03-.47,1.17-4.57,1.65-6.6h1.65v8.25c-15.2-.74-30.23,11.05-29.71-9.9,5.99-.87,1.71,6.64,4.13,8.25,1.73,1.15,18.4-.85,22.28,0Z"/>
          <path class="cls-1" d="M1410.76,141.95c.63-6.97,2.92-14.06,3.3-18.16-1.96,2.96,3.62,19-3.3,18.16Z"/>
          <path class="cls-1" d="M1440.47,178.26l-1.65,6.6c-3.89-.85-20.56,1.15-22.28,0-2.42-1.61,1.87-9.12-4.13-8.25.1-3.91.96-6.98,1.65-10.73,12.04,2.38,30.63-5.29,26.41,12.38Z"/>
          <path class="cls-1" d="M1438.82,184.87l1.65-6.6c-.48,2.03,1.38,6.14-1.65,6.6Z"/>
        </g>
        <g>
          <path class="cls-1" d="M1493.29,752.67c1.23,39.03,3.01,78.12,3.3,117.19h-143.6,141.12c1.47-1.04.85-7.63.83-9.9,0-.74-4.1-7.96-2.48-13.2h-139.47c0-1.09,0-2.21,0-3.3l138.65.83c-.46-2.58,1.02-9.42-.83-10.73-5.56-3.94-119.66,3.02-136.17,0,.04-1.64-.05-3.32,0-4.95,16.7-3.05,132.2,3.98,137.82,0,1.17-.83,1.18-6.96.83-7.43-4.16-5.54-122.26,2.53-138.65-.83.74-23.11,2.32-46.23,3.3-69.32l135.35,1.65Z"/>
          <path class="cls-1" d="M1352.99,843.45c.03-4.39,1.57-6.89,1.65-9.9,16.51,3.02,130.62-3.94,136.17,0,1.84,1.3.37,8.15.83,10.73l-138.65-.83Z"/>
          <path class="cls-1" d="M1354.64,828.59c.08-2.73-.09-5.52,0-8.25,16.39,3.35,134.49-4.72,138.65.83.35.47.34,6.6-.83,7.43-5.63,3.98-121.12-3.05-137.82,0Z"/>
          <polygon class="cls-1" points="1358.77 805.48 1492.46 805.48 1493.29 814.56 1357.11 817.04 1358.77 805.48"/>
        </g>
      </g>
      <g>
        <path class="cls-1" d="M1523,675.09c-6.48-.16-.11,9.78-8.25,5.78,2.93-2.04.35-2.02,0-4.13-8.25-49.66-.04-135.8-3.3-190.64-.16-2.64-1.01-17.14-4.95-17.33-.05-17.52,0-35.24,0-52.82l14.86.83,1.65-22.28c.85,93.71.05,186.96,0,280.6Z"/>
        <path class="cls-1" d="M1564.26,277.3c.4,12.91-16.93,2.68-23.11,8.25-4.29.24-26.83.25-28.06,4.13-1.67,7.65,9.51,2.07,11.55,4.95,3.29,4.63-3.29,31.47-3.3,37.96,0,1.27,3.31-.03,3.3,2.48-.04,13.48-1.75,27.5-1.65,41.26-10.1-10.13-8.69-3.51-16.51,1.65.01-25.57-2.26-56.92,0-81.7.06-.65,8.08-7.93,2.48-10.73-3.64-1.82-10.52,4.1-9.08-5.78.59-4.01,57.6-2.46,64.37-2.48Z"/>
        <path class="cls-1" d="M1514.75,676.74l-4.95,6.6c-1.07-27.99-2.72-56.17-3.3-84.18-.9-43.37.13-87,0-130.4,3.94.19,4.79,14.69,4.95,17.33,3.26,54.85-4.95,140.98,3.3,190.64Z"/>
        <path class="cls-1" d="M1523,376.33c.04,6.03-.05,12.13,0,18.16l-1.65,22.28-14.86-.83c0-12.63,0-25.33,0-37.96,7.81-5.17,6.41-11.78,16.51-1.65Z"/>
        <path class="cls-1" d="M1628.64,283.9c-28.87,4.21-58.52.05-87.48,1.65,6.18-5.58,23.51,4.66,23.11-8.25,10.35-.03,58.06-1.97,63.55,0,4.23,1.52-.17,5.04.83,6.6Z"/>
        <path class="cls-1" d="M1529.6,797.23l-6.6,5.78c.02-42.64-.02-85.3,0-127.92.05-93.64.85-186.89,0-280.6-.05-6.03.04-12.13,0-18.16-.1-13.76,1.61-27.79,1.65-41.26l6.6.83c-3.42,153.64.35,307.45-1.65,461.34Z"/>
        <path class="cls-1" d="M1575.82,346.62c.24,2.65-.22,10.16,2.48,11.55,5.1,2.63,41.62-1.98,50.34,0,.11,2.96,1.6,3.69,1.65,6.6l-54.47.83c1.8,4.05.99,21.01,2.48,22.28,1.91,1.64,43.93-1.4,50.34,0,.02,1.23.01,2.11,0,3.3-1.43-.03-1.66,1.33-3.3,1.65-7.69,1.48-45.88-2-48.69,0,1.6,13.74-4.79,21.09,9.08,23.11,12.82,1.87,29.61-1.38,42.92,0-.03,1.67.08,2.99,0,4.95h-51.99c1.81,16.02-5.49,21.21,10.73,23.11l1.65,4.95c-2.76.22-11.92-.88-13.2.83.96,7.52,1.76,14.65,1.65,22.28,0,.34-1.81,2.18-1.65,6.6.28,7.54,3.57,15.26.83,23.11h51.99c.14,2.55.09,2.67,0,4.95l-52.82,1.65c-.05-.29-1.84,2.28-3.3-4.95-1.01-5,1.39-17.23,0-20.63-.55-1.35-23.17-14.45-26.41-10.73-.06-2.07-3.49-7.95,1.65-6.6,2.25,3.38,18.92,7.01,22.28,11.55,5.9-1.52.74-21.55.83-24.76.03-1.32,1.57-1.8,1.65-4.95.2-7.73-1.73-15.93-1.65-23.11,0-.34,1.6-2.52,1.65-6.6.09-7.82-1.55-15.71-1.65-23.11,0-.26,1.74-.14,1.65-4.95-.14-7.67.25-15.44,0-23.11-.05-1.64.07-3.32,0-4.95-.22-4.79.56-10.28,0-14.86h3.3Z"/>
        <path class="cls-1" d="M1572.52,736.16c.02,7.41-.03,14.86,0,22.28,0,1.34,3.3.66,3.3.83,0,2.51-3.31,1.2-3.3,2.48.08,18.98-.22,37.99,0,56.95l-24.76-8.25c.06-4.11-2.71-23.73-1.65-26.41,43.31,24.46,14.29-4.39,1.65-1.65-1.22-8.63-1.64-17.77-1.65-26.41,6.66-.19,15.47,11.5,21.46,5.78l-19.81-9.08c0-8.22,0-16.52,0-24.76l24.76,8.25Z"/>
        <path class="cls-1" d="M1523,675.09c-.02,42.62.02,85.28,0,127.92l6.6-5.78c-.1,7.66,1.52,52.98,0,55.29-5.73,8.71-6.02-14.04-13.2-8.25-.47-53.73-4.55-107.31-6.6-160.93l4.95-6.6c.35,2.11,2.93,2.09,0,4.13,8.14,4,1.77-5.94,8.25-5.78Z"/>
        <path class="cls-1" d="M1617.08,731.21c-4.6.39-37.21,1.12-38.79,0-.97-.69-1.73-19.72-2.48-23.11,5.77-1.58,48.65-3.13,51.99-1.65,3.27,1.45,3.34,20.33,2.48,22.28-1.76,3.96-9.71,2.18-13.2,2.48Z"/>
        <path class="cls-1" d="M1628.64,358.18c-8.72-1.98-45.24,2.63-50.34,0-2.69-1.39-2.24-8.9-2.48-11.55-.27-2.93-.97-12.04,2.48-13.2l51.17,1.65c3.44,2.44-.95,19.65-.83,23.11Z"/>
        <path class="cls-1" d="M1577.47,759.27l-.83-23.11c13.41.61,27.08-.83,40.44,0,3.31.21,9-2.29,13.2.83l-.83,22.28h-51.99Z"/>
        <path class="cls-1" d="M1628.64,506.73c-.14,3.45,4.27,20.67.83,23.11h-51.17c-.84-6.87-.99-12.95-2.48-19.81-.11-.52.1-1.12,0-1.65l52.82-1.65Z"/>
        <path class="cls-1" d="M1575.82,536.44c4.12,3.4-.37,19.44,2.48,21.46,3.87,2.74,42.68-1.66,50.34,1.65.04,1.09-.02,2.21,0,3.3h-3.3c-7.7,0-47.4-1.56-49.52,2.48-.88,4.03,1.1,7.09,1.65,10.73.39,2.6-.98,10.27.83,11.55,2.05,1.46,43.51-.87,50.34,0,.02,1.64.02,3.31,0,4.95h-51.99c-1.93,1.2.45,9.42.83,11.55.1.57-.15,1.21,0,1.65.42,2.47-.97,8.63.83,9.9,2.12,1.5,45.76,1.31,51.99,0-.05,1.64.08,3.32,0,4.95h-51.99c-3.53,1.32-.97,8.42-.83,11.55.18,3.82-.12,7.73,0,11.55-2.48.18-.81,4.48-4.95,3.3v-108.94c.18-.03-.1-2.55,3.3-1.65Z"/>
        <path class="cls-1" d="M1565.91,333.42c-3.57-2.54-13.97-4.73-18.16-8.25.27-10.06-.2-20.38,0-30.54.86-1.21,24.54.08,25.58.83,1.72,1.22,4.21,39.67-7.43,37.96Z"/>
        <path class="cls-1" d="M1628.64,562.85c.15,8.35-.1,16.59,0,24.76-6.83-.87-48.29,1.46-50.34,0-1.81-1.28-.43-8.96-.83-11.55,11.26-2.58,38.99-1.04,47.04-6.6,4.73-3.27.52-2.13.83-6.6h3.3Z"/>
        <path class="cls-1" d="M1572.52,848.4c.33,6.81,3.14,15.5,1.65,23.11h-28.06c-1.54-10.98,1.37-22.26,1.65-33.01l24.76,9.9Z"/>
        <path class="cls-1" d="M1628.64,592.56c-.08,6.9,1.89,15.36,1.65,23.11-6.23,1.31-49.87,1.5-51.99,0-1.8-1.27-.41-7.43-.83-9.9.81,2.34,2.12,8.01,2.48,8.25,2.05,1.42,45.17,1.42,47.04-4.13,5.22-15.47-40.32-5.22-49.52-5.78-.38-2.13-2.76-10.36-.83-11.55h51.99Z"/>
        <path class="cls-1" d="M1628.64,415.95c-13.31-1.38-30.1,1.87-42.92,0-9.91-31.52,43.11-.96,39.61-23.11,1.64-.32,1.87-1.68,3.3-1.65-.09,8.2.15,16.38,0,24.76Z"/>
        <path class="cls-1" d="M1630.29,635.47c-.47,3.5,1.47,7.33-2.48,9.9-6.96,3.07-41.16-2.33-50.34-1.65-.12-3.82.18-7.74,0-11.55,17.35.08,36.63-2.42,52.82,3.3Z"/>
        <path class="cls-1" d="M1589.02,448.96c21.23-1.71,49.3-7.21,41.26,22.28-.75,1.5-2.4.51-3.3.83,12.82-19.92-36.69-16.34-38.79-14.86-1.95,1.38-.27,11.79-.83,14.86-3.22.02-6.61.16-9.9,0,.11-7.63-.69-14.77-1.65-22.28,1.28-1.71,10.45-.6,13.2-.83Z"/>
        <path class="cls-1" d="M1572.52,595.86v21.46l-26.41-6.6c-.02-8.71.01-17.63,0-26.41l26.41,11.55Z"/>
        <path class="cls-1" d="M1572.52,625.57v19.81c-5.75,6.75-16.88-7.72-24.76-6.6-.01-8.36-1.63-17.65-1.65-26.41l26.41,13.2Z"/>
        <path class="cls-1" d="M1572.52,538.09v23.11l-24.76-8.25c.02-8.75-.02-17.64,0-26.41,6.29,1.45,19.02,12.62,24.76,11.55Z"/>
        <path class="cls-1" d="M1572.52,567.8v21.46l-24.76-8.25c0-8.24-.02-16.52,0-24.76l24.76,11.55Z"/>
        <path class="cls-1" d="M1565.91,333.42c1.71,1.22,6.45,3.77,6.6,4.13.64,1.49-.3,6.57,0,9.08.56,4.57-.22,10.06,0,14.86l-24.76-9.9c.18-8.77-.23-17.64,0-26.41,4.18,3.52,14.58,5.71,18.16,8.25Z"/>
        <path class="cls-1" d="M1572.52,655.28c0,6.58,0,13.22,0,19.81l-24.76-8.25c-.03-7.84-1.64-16.65-1.65-24.76l26.41,13.2Z"/>
        <path class="cls-1" d="M1572.52,825.29c.13,7.66-.37,15.47,0,23.11l-24.76-9.9c.21-8.08-.17-16.54,0-24.76l24.76,11.55Z"/>
        <path class="cls-1" d="M1572.52,503.43l-24.76-8.25c-.16-7.33-1.42-15.61-1.65-23.11,3.24-3.72,25.86,9.38,26.41,10.73,1.39,3.4-1.01,15.63,0,20.63Z"/>
        <path class="cls-1" d="M1572.52,510.03v23.11c-9.64-2.04-15.7-7.16-24.76-9.9,0-8.18.04-16.58,0-24.76,8.81,2.77,15.84,8.99,24.76,11.55Z"/>
        <path class="cls-1" d="M1570.87,424.2c-.08,7.18,1.85,15.38,1.65,23.11l-24.76-8.25c-.15-8.44,0-16.39,0-24.76l23.11,9.9Z"/>
        <path class="cls-1" d="M1572.52,709.75c.02,7.68-.02,15.43,0,23.11l-24.76-8.25c.01-8.75.04-17.73,0-26.41l24.76,11.55Z"/>
        <path class="cls-1" d="M1572.52,681.69c0,7.68-.01,15.42,0,23.11l-24.76-9.9c-.04-7.72-1.62-16.96-1.65-24.76l26.41,11.55Z"/>
        <path class="cls-1" d="M1630.29,620.62c-.22,4.76.6,10.38,0,14.86-16.18-5.72-35.47-3.22-52.82-3.3-.15-3.14-2.71-10.24.83-11.55h51.99Z"/>
        <path class="cls-1" d="M1570.87,452.26c-.08,3.21,5.08,23.24-.83,24.76-3.36-4.55-20.04-8.17-22.28-11.55-4.65-7,.26-15.9,0-23.11l23.11,9.9Z"/>
        <path class="cls-1" d="M1570.87,394.49c.1,7.39,1.74,15.29,1.65,23.11l-24.76-8.25c.05-8.23-.08-16.47,0-24.76l23.11,9.9Z"/>
        <path class="cls-1" d="M1572.52,366.43c.25,7.67-.14,15.44,0,23.11l-24.76-8.25c.08-8.81-.16-17.63,0-26.41l24.76,11.55Z"/>
        <path class="cls-1" d="M1626.99,472.07c-4.23,1.48-32.25-.05-39.61,0,.55-3.07-1.13-13.47.83-14.86,2.1-1.49,51.61-5.06,38.79,14.86Z"/>
        <g>
          <path class="cls-1" d="M1650.09,759.27c-5.81,22.65-16.39,40.59-11.55,65.2,1.21,6.17,7.08,12.83,8.25,20.63,1.11,7.42-.81,17.03,0,24.76-23.87-.17-48.5,1.65-72.63,1.65,1.49-7.61-1.32-16.3-1.65-23.11-.37-7.64.13-15.45,0-23.11-.04-2.19.03-4.42,0-6.6-.22-18.95.08-37.97,0-56.95,0-1.27,3.31.03,3.3-2.48h53.64l.83-22.28c-4.21-3.12-9.89-.62-13.2-.83v-4.95c3.5-.3,11.45,1.49,13.2-2.48.87-1.95.79-20.83-2.48-22.28-3.34-1.48-46.22.08-51.99,1.65-.88.24-2.25-.12-3.3,0,0-1.09,0-2.21,0-3.3-.01-7.68,0-15.42,0-23.11,0-2.19,0-4.42,0-6.6,0-6.58,0-13.22,0-19.81,0-2.74,0-5.51,0-8.25,4.15,1.18,2.47-3.12,4.95-3.3,9.18-.68,43.38,4.72,50.34,1.65,3.95-2.58,2-6.4,2.48-9.9.6-4.48-.22-10.1,0-14.86.08-1.63-.05-3.32,0-4.95.24-7.75-1.73-16.21-1.65-23.11.02-1.64.02-3.31,0-4.95-.1-8.17.15-16.41,0-24.76-.02-1.09.04-2.21,0-3.3-.2-6.07,4.2-17.49.83-24.76-2.19-1.55-45.55,1.14-53.64,0-4.02-.56-3.12-1.61-3.3-1.65v-23.11c.84.24,2.24-.12,3.3,0,1.49,6.85,1.64,12.94,2.48,19.81h51.17c3.44-2.44-.96-19.66-.83-23.11.09-2.28.14-2.4,0-4.95-.2-3.78,5.24-22.07-.83-24.76l-51.99,1.65c-.16-4.42,1.65-6.26,1.65-6.6,3.3.16,6.68.02,9.9,0,7.36-.05,35.39,1.48,39.61,0,.9-.32,2.55.68,3.3-.83,8.04-29.49-20.03-23.99-41.26-22.28l-1.65-4.95c13.06,1.53,28.69-1.12,42.09,0,3.44-2.44-.96-19.66-.83-23.11.08-1.96-.03-3.28,0-4.95.15-8.37-.09-16.56,0-24.76.01-1.19.02-2.08,0-3.3-.1-7.12,1.79-15.44,1.65-23.11-.05-2.91-1.54-3.64-1.65-6.6-.13-3.46,4.27-20.67.83-23.11l-51.17-1.65c-3.44,1.17-2.74,10.27-2.48,13.2h-3.3c-.3-2.51.64-7.59,0-9.08-.15-.36-4.89-2.91-6.6-4.13,11.64,1.71,9.15-36.74,7.43-37.96-1.04-.74-24.72-2.04-25.58-.83-.2,10.15.27,20.48,0,30.54-.23,8.77.18,17.64,0,26.41-.02,1.09.02,2.21,0,3.3-.16,8.78.08,17.6,0,26.41-.01,1.13,0,2.28,0,3.3-.08,8.29.05,16.52,0,24.76-.01,1.92-3.3,3.44-3.3,4.13,0,1.34,3.3.66,3.3.83,0,8.37-.15,16.32,0,24.76,0,.21-3.34,1.32-3.3,2.48.04,1.35,3.3.66,3.3.83.26,7.21-4.65,16.1,0,23.11-5.14-1.35-1.71,4.53-1.65,6.6.23,7.49,1.49,15.77,1.65,23.11.02,1.04,0,2.23,0,3.3.04,8.18,0,16.58,0,24.76,0,1.09,0,2.21,0,3.3-.02,8.77.02,17.66,0,26.41,0,1.09,0,2.19,0,3.3-.02,8.24,0,16.52,0,24.76,0,.18-1.66-.83-1.65,3.3.01,8.78-.02,17.7,0,26.41,0,.55,0,1.1,0,1.65.02,8.76,1.64,18.04,1.65,26.41,0,.18-1.66-.82-1.65,3.3.01,8.11,1.62,16.92,1.65,24.76,0,1.57-1.66,1.74-1.65,3.3.03,7.8,1.62,17.04,1.65,24.76,0,1.09,0,2.21,0,3.3.04,8.68.01,17.66,0,26.41,0,1.09,0,2.23,0,3.3,0,8.24,0,16.54,0,24.76,0,1.57-1.65,1.74-1.65,3.3.02,8.64.43,17.78,1.65,26.41l-1.65,1.65c-1.06,2.68,1.71,22.3,1.65,26.41-.02,1.14.02,2.37,0,3.3-.17,8.22.21,16.68,0,24.76-.28,10.75-3.19,22.03-1.65,33.01-16.45,0-33.3-1.65-49.52-1.65-.29-39.07-2.07-78.16-3.3-117.19-1.58-50.05-3.08-100.17-4.95-150.2l18.16-3.3c.58,28.01,2.23,56.19,3.3,84.18,2.05,53.62,6.13,107.2,6.6,160.93,7.18-5.79,7.47,16.97,13.2,8.25,1.52-2.31-.1-47.64,0-55.29,2-153.89-1.77-307.7,1.65-461.34l-6.6-.83c0-2.51-3.3-1.2-3.3-2.48.01-6.5,6.59-33.33,3.3-37.96-2.04-2.88-13.22,2.69-11.55-4.95,1.23-3.88,23.77-3.89,28.06-4.13,28.96-1.6,58.61,2.56,87.48-1.65,5.24,8.28,3.26,10.33,13.2,10.73v473.72l8.25-9.08Z"/>
          <g>
            <path class="cls-1" d="M1576.64,821.99c7.15,1.33,50.33-1.76,52.82,0s-1.02,19.54,2.48,23.93c-1.04,2.91-51.45,4.03-53.64,2.48-2.31-1.63.46-21.91-1.65-26.41Z"/>
            <polygon class="cls-1" points="1578.29 792.28 1629.46 792.28 1630.29 816.21 1576.64 817.04 1578.29 792.28"/>
            <polygon class="cls-1" points="1578.29 764.22 1629.46 764.22 1630.29 788.15 1578.29 788.98 1578.29 764.22"/>
            <path class="cls-1" d="M1626.99,701.5c-.53-3.41,2.03-6.33-2.48-8.25-3.56-1.52-42.17-1.17-47.04,3.3-1.9-5.81-2.59-12.16-.83-18.16,7.14,1.33,50.35-1.75,52.82,0,1.84,1.31,2.37,20.12-2.48,23.11Z"/>
            <path class="cls-1" d="M1626.99,673.44c3.45-18.03-39.54-8.74-51.17-6.6-.2-1.3,1.3-13.55.83-16.51l51.17-1.65,2.48,23.93c-.75,1.5-2.4.51-3.3.83Z"/>
            <path class="cls-1" d="M1626.99,673.44c-2.37.83-48.01.95-50.34,0,.06-2.64-.48-4.35-.83-6.6,11.63-2.13,54.61-11.42,51.17,6.6Z"/>
            <path class="cls-1" d="M1626.99,701.5c-2.07,1.28-46.37.74-48.69,0-3-.95-.75-4.71-.83-4.95,4.87-4.47,43.48-4.82,47.04-3.3,4.51,1.92,1.95,4.85,2.48,8.25Z"/>
          </g>
        </g>
        <path class="cls-1" d="M1575.82,708.1c.74,3.39,1.5,22.42,2.48,23.11,1.58,1.12,34.19.39,38.79,0v4.95c-13.36-.83-27.03.61-40.44,0l.83,23.11h-1.65c0-.17-3.3.52-3.3-.83-.03-7.43.02-14.88,0-22.28,0-1.09,0-2.21,0-3.3-.02-7.68.02-15.43,0-23.11,0-.55,0-1.1,0-1.65,1.05-.12,2.42.24,3.3,0Z"/>
        <path class="cls-1" d="M1572.52,417.6c-.05,4.08-1.65,6.26-1.65,6.6l-23.11-9.9c0-.17-3.31.51-3.3-.83,0-.69,3.29-2.21,3.3-4.13l24.76,8.25Z"/>
        <path class="cls-1" d="M1572.52,503.43c1.46,7.23,3.25,4.66,3.3,4.95.1.53-.11,1.13,0,1.65-1.06-.12-2.46.24-3.3,0-8.92-2.56-15.95-8.79-24.76-11.55,0-1.07.02-2.27,0-3.3l24.76,8.25Z"/>
        <path class="cls-1" d="M1572.52,675.09c0,2.19,0,4.42,0,6.6l-26.41-11.55c0-1.56,1.66-1.74,1.65-3.3l24.76,8.25Z"/>
        <path class="cls-1" d="M1572.52,645.38v1.65c0,2.74,0,5.51,0,8.25l-26.41-13.2c0-4.13,1.65-3.12,1.65-3.3,7.88-1.12,19.01,13.35,24.76,6.6Z"/>
        <path class="cls-1" d="M1572.52,617.32v8.25l-26.41-13.2c0-.55,0-1.1,0-1.65l26.41,6.6Z"/>
        <path class="cls-1" d="M1572.52,447.31c-.08,3.15-1.62,3.63-1.65,4.95l-23.11-9.9c0-.17-3.26.53-3.3-.83-.03-1.16,3.3-2.27,3.3-2.48l24.76,8.25Z"/>
        <path class="cls-1" d="M1572.52,533.14c.18.04-.72,1.09,3.3,1.65v1.65c-3.4-.9-3.12,1.62-3.3,1.65-5.74,1.07-18.47-10.1-24.76-11.55,0-1.09,0-2.21,0-3.3,9.06,2.74,15.12,7.87,24.76,9.9Z"/>
        <path class="cls-1" d="M1572.52,704.8c0,1.09,0,2.21,0,3.3,0,.55,0,1.1,0,1.65l-24.76-11.55c0-1.09,0-2.21,0-3.3l24.76,9.9Z"/>
        <path class="cls-1" d="M1572.52,818.69c.03,2.19-.04,4.42,0,6.6l-24.76-11.55c.02-.93-.02-2.16,0-3.3l24.76,8.25Z"/>
        <path class="cls-1" d="M1572.52,561.2v6.6l-24.76-11.55c0-1.11,0-2.21,0-3.3l24.76,8.25Z"/>
        <path class="cls-1" d="M1572.52,361.48c.07,1.63-.05,3.32,0,4.95l-24.76-11.55c.02-1.09-.02-2.21,0-3.3l24.76,9.9Z"/>
        <path class="cls-1" d="M1572.52,589.26v6.6l-26.41-11.55c0-4.13,1.65-3.12,1.65-3.3l24.76,8.25Z"/>
        <path class="cls-1" d="M1572.52,389.54c.09,4.81-1.65,4.69-1.65,4.95l-23.11-9.9c0-1.02-.01-2.17,0-3.3l24.76,8.25Z"/>
        <path class="cls-1" d="M1572.52,732.86c0,1.09,0,2.21,0,3.3l-24.76-8.25c0-1.07,0-2.21,0-3.3l24.76,8.25Z"/>
        <path class="cls-1" d="M1546.11,784.03l1.65-1.65c12.64-2.74,41.66,26.11-1.65,1.65Z"/>
        <path class="cls-1" d="M1546.11,755.97c0-1.56,1.65-1.73,1.65-3.3l19.81,9.08c-5.99,5.72-14.8-5.97-21.46-5.78Z"/>
        <path class="cls-1" d="M1625.33,392.84c3.49,22.15-49.52-8.41-39.61,23.11-13.87-2.02-7.48-9.37-9.08-23.11,2.82-2,41,1.48,48.69,0Z"/>
        <path class="cls-1" d="M1577.47,605.76c-.15-.44.1-1.08,0-1.65,9.2.56,54.74-9.69,49.52,5.78-1.87,5.55-44.99,5.55-47.04,4.13-.35-.25-1.66-5.92-2.48-8.25Z"/>
        <path class="cls-1" d="M1625.33,562.85c-.3,4.47,3.91,3.33-.83,6.6-8.05,5.56-35.78,4.02-47.04,6.6-.55-3.64-2.53-6.69-1.65-10.73,2.12-4.03,41.82-2.48,49.52-2.48Z"/>
        <g>
          <path class="cls-1" d="M1630.29,364.78c.14,7.67-1.75,15.99-1.65,23.11-6.41-1.4-48.43,1.64-50.34,0-1.49-1.27-.68-18.24-2.48-22.28l54.47-.83Z"/>
          <path class="cls-1" d="M1586.55,371.38c4.97-2.2,50.82-2.23,40.44,12.38-1.22,1.72-40.37,2.04-42.09.83-1.53-1.08-1.85-11.65,1.65-13.2Z"/>
        </g>
        <g>
          <path class="cls-1" d="M1628.64,501.78h-51.99c2.74-7.85-.55-15.57-.83-23.11l51.99-1.65c6.06,2.69.62,20.98.83,24.76Z"/>
          <path class="cls-1" d="M1589.85,485.27c4.39-1.95,48.52-3.49,37.14,12.38-1.13,1.58-37.2,1.94-38.79.83s-1.85-11.65,1.65-13.2Z"/>
        </g>
        <g>
          <path class="cls-1" d="M1628.64,559.55c-7.66-3.31-46.47,1.09-50.34-1.65-2.85-2.01,1.65-18.05-2.48-21.46v-1.65c8.09,1.14,51.46-1.55,53.64,0,3.37,7.27-1.03,18.68-.83,24.76Z"/>
          <path class="cls-1" d="M1586.55,543.04c5.57-1.28,31.17,4.36,39.61,1.65,7.14,19.66-32.97,9.89-44.57,9.9-5.28-2.31,3.67-11.26,4.95-11.55Z"/>
        </g>
        <g>
          <path class="cls-1" d="M1628.64,420.9c-.14,3.45,4.27,20.67.83,23.11-13.4-1.12-29.03,1.53-42.09,0-16.22-1.9-8.91-7.08-10.73-23.11h51.99Z"/>
          <path class="cls-1" d="M1586.55,429.15c6.93.8,53.12-5.3,40.44,12.38-1.58,2.21-34.84.04-40.44.83v-13.2Z"/>
        </g>
      </g>
    </g>
    <g>
      <path class="cls-1" d="M1095.5,420.9v448.13c-1.3,1.83-13.36.46-16.51.83-5.17-141.58,6.9-288.13,0-429.15-.75-15.39-5.59-7.6-16.51-4.95l-.83-3.3c-12.15-.53-19.95.38-30.54,3.3-2.47-7.08-14.15-4.35-14.86,4.95,1.66-7.6-7.94-5.13-11.55-4.13-1.49,103.2.08,206.42,0,309.48-1.08.08-2.21-.04-3.3,0,.05-103.39,1.33-206.99-1.65-310.31,4.33-5.8-11.21-4.32-13.2.83l-1.65,297.93c.14-98.73-.11-197.52,0-296.28l-6.6-1.65,1.65,433.28c-7.06-.05-14.31.05-21.46,0-.63-23.59.86-47.4,0-70.98-.12-3.27.21-6.64,0-9.9-.56-8.88,2.54-12.94-3.3-18.16l1.65-349.1c40.61,3.52,100.2-7.51,138.65-.83Z"/>
      <path class="cls-1" d="M1107.05,760.92c-.1,12.08.17,24.24,0,36.31-.15,10.6-1.37,20.86-1.65,31.36-.38,14.26.28,28.65,0,42.92-2.19,0-4.42,0-6.6,0v-448.96c3.88,1.56,5.57,2.21,8.25,5.78-.66,110.84.88,221.86,0,332.59Z"/>
      <path class="cls-1" d="M1098.8,422.55v448.96c-7.13-.01-14.32.02-21.46,0-.18-1.43.41-1.5,1.65-1.65,3.15-.37,15.21,1,16.51-.83v-448.13c3.79.66,3.13,1.58,3.3,1.65Z"/>
      <path class="cls-1" d="M1078.99,440.71c6.9,141.02-5.17,287.57,0,429.15-1.24.15-1.83.22-1.65,1.65-3.84,0-7.72,0-11.55,0,1.78-44.49-1.65-89.32-1.65-133.7,0-100.29,3.43-200.85,1.65-301.23.7-.99,15.77-3.62,13.2,4.13Z"/>
      <path class="cls-1" d="M999.76,435.75c2.98,103.32,1.7,206.92,1.65,310.31-.02,41.75,1.37,83.78-1.65,125.44-3.28-.02-6.62.02-9.9,0,.07-1.45-1.42-1.65-1.65-3.3,2.47-.42,8.63.97,9.9-.83,3.67-5.19-2.81-111.61,0-127.09l-9.9-.83c.59-100.79,2.99-201.94,1.65-302.88l9.9-.83Z"/>
      <path class="cls-1" d="M1016.27,440.71v303.71c-4.36-1.13-7.9,1.37-11.55,1.65.08-103.07-1.49-206.29,0-309.48,3.61-1,13.21-3.48,11.55,4.13Z"/>
      <path class="cls-1" d="M984.91,734.51c-.06,39.65,1.98,82.03,0,121.32-.08,1.68-.7,14-3.3,14.03-.55,0-1.1,0-1.65,0l-1.65-433.28,6.6,1.65c-.11,98.76.14,197.54,0,296.28Z"/>
      <path class="cls-1" d="M1062.49,435.75c-2.82.68-11.77-1.2-13.2.83v311.13l-3.3-4.95c0-102.3.69-204.71-.83-307.01l-10.73.83v304.53h-3.3v-305.36c10.59-2.93,18.38-3.84,30.54-3.3l.83,3.3Z"/>
      <path class="cls-1" d="M999.76,435.75l-9.9.83c1.33,100.95-1.06,202.1-1.65,302.88-.2,34.1-4.23,98.65,0,128.75.23,1.65,1.72,1.85,1.65,3.3-3.8-.02-7.83-1.65-8.25-1.65,2.61-.03,3.22-12.35,3.3-14.03,1.98-39.28-.06-81.67,0-121.32l1.65-297.93c2-5.15,17.53-6.63,13.2-.83Z"/>
      <path class="cls-1" d="M1078.99,440.71c2.57-7.75-12.51-5.11-13.2-4.13,1.78,100.38-1.65,200.94-1.65,301.23h-1.65c.74-100.55-.57-201.42,0-302.06,10.91-2.65,15.75-10.43,16.51,4.95Z"/>
      <path class="cls-1" d="M1031.12,435.75c-2.58.71-10.12-1.2-11.55.83v302.88c-1.23.16-1.83.21-1.65,1.65h-1.65v-300.41c.7-9.3,12.39-12.04,14.86-4.95Z"/>
      <path class="cls-1" d="M1004.72,746.06c-.03,41.64-4.77,83.78,0,125.44-1.64,0-3.31,0-4.95,0,3.02-41.66,1.63-83.69,1.65-125.44,1.09-.04,2.22.08,3.3,0Z"/>
      <path class="cls-1" d="M1062.49,435.75c-.57,100.64.74,201.5,0,302.06-.33,44.57-2.35,89.11-1.65,133.7-3.84-.01-7.72.01-11.55,0v-1.65c2.47-.42,8.63.97,9.9-.83,3.58-5.05-2.74-108.69,0-123.79l-9.9.83v-309.48c1.44-2.03,10.39-.14,13.2-.83Z"/>
      <path class="cls-1" d="M1031.12,435.75v435.75c-3.83-.01-7.72.01-11.55,0v-3.3l8.25.83v-128.75c-.91-1.29-6.44-1.07-8.25-.83v-302.88c1.43-2.02,8.98-.11,11.55-.83Z"/>
      <path class="cls-1" d="M1016.27,744.41v127.09c-3.83-.01-7.72.02-11.55,0-4.77-41.67-.03-83.8,0-125.44,3.65-.28,7.19-2.79,11.55-1.65Z"/>
      <path class="cls-1" d="M1045.98,759.27v112.24c-3.83-.01-7.72.01-11.55,0v-130.4c12.4,0,8.22,10.91,11.55,18.16Z"/>
      <path class="cls-1" d="M1065.79,871.51c-1.64,0-3.31,0-4.95,0-.7-44.59,1.32-89.13,1.65-133.7h1.65c0,44.38,3.43,89.21,1.65,133.7Z"/>
      <path class="cls-1" d="M1019.57,868.21v3.3c-1.09,0-2.21,0-3.3,0v-130.4h1.65c3.02,42.21,1.65,84.8,1.65,127.09Z"/>
      <path class="cls-1" d="M1034.43,741.11v130.4c-1.09,0-2.21,0-3.3,0v-130.4h3.3Z"/>
      <path class="cls-1" d="M1049.28,747.71v123.79c-1.09,0-2.21,0-3.3,0v-128.75l3.3,4.95Z"/>
      <path class="cls-1" d="M988.21,868.21c-4.23-30.09-.2-94.65,0-128.75l9.9.83c-2.81,15.49,3.67,121.91,0,127.09-1.27,1.8-7.43.41-9.9.83Z"/>
      <path class="cls-1" d="M1045.98,742.76v16.51c-3.33-7.24.84-18.16-11.55-18.16v-304.53l10.73-.83c1.51,102.3.83,204.7.83,307.01Z"/>
      <path class="cls-1" d="M1049.28,869.86v-123.79l9.9-.83c-2.74,15.11,3.58,118.74,0,123.79-1.27,1.8-7.43.41-9.9.83Z"/>
      <path class="cls-1" d="M1019.57,868.21c0-42.3,1.37-84.89-1.65-127.09-.18-1.44.42-1.49,1.65-1.65,1.82-.24,7.34-.47,8.25.83v128.75l-8.25-.83Z"/>
    </g>
  </g>
</svg>